<?xml version="1.0" encoding="UTF-8" standalone="no"?>
<!DOCTYPE svg PUBLIC "-//W3C//DTD SVG 1.1//EN"
 "http://www.w3.org/Graphics/SVG/1.1/DTD/svg11.dtd">
<!-- Generated by graphviz version 2.40.1 (20161225.0304)
 -->
<!-- Title: dependencies Pages: 1 -->
<svg width="1346pt" height="284pt"
 viewBox="0.00 0.00 1346.00 284.00" xmlns="http://www.w3.org/2000/svg" xmlns:xlink="http://www.w3.org/1999/xlink">
<g id="graph0" class="graph" transform="scale(1 1) rotate(0) translate(4 280)">
<title>dependencies</title>
<polygon fill="#ffffff" stroke="transparent" points="-4,4 -4,-280 1342,-280 1342,4 -4,4"/>
<text text-anchor="start" x="648.0091" y="-42.4" font-family="sans-serif" font-weight="bold" font-size="14.00" fill="#000000">Legend</text>
<polygon fill="#ffffb3" stroke="transparent" points="435,-10 435,-30 455,-30 455,-10 435,-10"/>
<text text-anchor="start" x="458.629" y="-15.4" font-family="sans-serif" font-size="14.00" fill="#000000"> &#160;Declarations</text>
<polygon fill="#8dd3c7" stroke="transparent" points="548,-10 548,-30 568,-30 568,-10 548,-10"/>
<text text-anchor="start" x="571.7251" y="-15.4" font-family="sans-serif" font-size="14.00" fill="#000000"> &#160;Module</text>
<polygon fill="#80b1d3" stroke="transparent" points="634,-10 634,-30 654,-30 654,-10 634,-10"/>
<text text-anchor="start" x="657.7812" y="-15.4" font-family="sans-serif" font-size="14.00" fill="#000000"> &#160;Bootstrap</text>
<polygon fill="#fdb462" stroke="transparent" points="731,-10 731,-30 751,-30 751,-10 731,-10"/>
<text text-anchor="start" x="754.6732" y="-15.4" font-family="sans-serif" font-size="14.00" fill="#000000"> &#160;Providers</text>
<polygon fill="#fb8072" stroke="transparent" points="827,-10 827,-30 847,-30 847,-10 827,-10"/>
<text text-anchor="start" x="850.7258" y="-15.4" font-family="sans-serif" font-size="14.00" fill="#000000"> &#160;Exports</text>
<g id="clust1" class="cluster">
<title>cluster_AppModule</title>
<polygon fill="none" stroke="#000000" stroke-dasharray="1,5" points="8,-70 8,-268 1330,-268 1330,-70 8,-70"/>
</g>
<g id="clust2" class="cluster">
<title>cluster_AppModule_declarations</title>
<polygon fill="none" stroke="#000000" points="336,-78 336,-130 1322,-130 1322,-78 336,-78"/>
</g>
<g id="clust10" class="cluster">
<title>cluster_AppModule_imports</title>
<polygon fill="none" stroke="#000000" points="184,-78 184,-130 328,-130 328,-78 184,-78"/>
</g>
<g id="clust12" class="cluster">
<title>cluster_AppModule_bootstrap</title>
<polygon fill="none" stroke="#000000" points="643,-208 643,-260 767,-260 767,-208 643,-208"/>
</g>
<g id="clust13" class="cluster">
<title>cluster_AppModule_providers</title>
<polygon fill="none" stroke="#000000" points="16,-78 16,-130 176,-130 176,-78 16,-78"/>
</g>
<!-- AppComponent -->
<g id="node1" class="node">
<title>AppComponent</title>
<polygon fill="#ffffb3" stroke="#000000" points="1313.9399,-122 1208.0601,-122 1208.0601,-86 1313.9399,-86 1313.9399,-122"/>
<text text-anchor="middle" x="1261" y="-99.8" font-family="Times,serif" font-size="14.00" fill="#000000">AppComponent</text>
</g>
<!-- AppModule -->
<g id="node8" class="node">
<title>AppModule</title>
<polygon fill="#8dd3c7" stroke="#000000" points="746.6571,-187 743.6571,-191 722.6571,-191 719.6571,-187 663.3429,-187 663.3429,-151 746.6571,-151 746.6571,-187"/>
<text text-anchor="middle" x="705" y="-164.8" font-family="Times,serif" font-size="14.00" fill="#000000">AppModule</text>
</g>
<!-- AppComponent&#45;&gt;AppModule -->
<g id="edge1" class="edge">
<title>AppComponent&#45;&gt;AppModule</title>
<path fill="none" stroke="#000000" d="M1261,-122.0109C1261,-144.4852 1261,-180 1261,-180 1261,-180 756.7904,-180 756.7904,-180"/>
<polygon fill="#000000" stroke="#000000" points="756.7904,-176.5001 746.7904,-180 756.7903,-183.5001 756.7904,-176.5001"/>
</g>
<!-- RegisterComponent -->
<g id="node2" class="node">
<title>RegisterComponent</title>
<polygon fill="#ffffb3" stroke="#000000" points="1189.9846,-122 1062.0154,-122 1062.0154,-86 1189.9846,-86 1189.9846,-122"/>
<text text-anchor="middle" x="1126" y="-99.8" font-family="Times,serif" font-size="14.00" fill="#000000">RegisterComponent</text>
</g>
<!-- RegisterComponent&#45;&gt;AppModule -->
<g id="edge2" class="edge">
<title>RegisterComponent&#45;&gt;AppModule</title>
<path fill="none" stroke="#000000" d="M1126,-122.1289C1126,-142.5724 1126,-173 1126,-173 1126,-173 756.9062,-173 756.9062,-173"/>
<polygon fill="#000000" stroke="#000000" points="756.9063,-169.5001 746.9062,-173 756.9062,-176.5001 756.9063,-169.5001"/>
</g>
<!-- FooterComponent -->
<g id="node3" class="node">
<title>FooterComponent</title>
<polygon fill="#ffffb3" stroke="#000000" points="1043.8809,-122 926.1191,-122 926.1191,-86 1043.8809,-86 1043.8809,-122"/>
<text text-anchor="middle" x="985" y="-99.8" font-family="Times,serif" font-size="14.00" fill="#000000">FooterComponent</text>
</g>
<!-- FooterComponent&#45;&gt;AppModule -->
<g id="edge3" class="edge">
<title>FooterComponent&#45;&gt;AppModule</title>
<path fill="none" stroke="#000000" d="M985,-122.2667C985,-140.5552 985,-166 985,-166 985,-166 756.9188,-166 756.9188,-166"/>
<polygon fill="#000000" stroke="#000000" points="756.9189,-162.5001 746.9188,-166 756.9188,-169.5001 756.9189,-162.5001"/>
</g>
<!-- LoginComponent -->
<g id="node4" class="node">
<title>LoginComponent</title>
<polygon fill="#ffffb3" stroke="#000000" points="908.2758,-122 793.7242,-122 793.7242,-86 908.2758,-86 908.2758,-122"/>
<text text-anchor="middle" x="851" y="-99.8" font-family="Times,serif" font-size="14.00" fill="#000000">LoginComponent</text>
</g>
<!-- LoginComponent&#45;&gt;AppModule -->
<g id="edge4" class="edge">
<title>LoginComponent&#45;&gt;AppModule</title>
<path fill="none" stroke="#000000" d="M851,-122.0091C851,-138.0494 851,-159 851,-159 851,-159 756.8377,-159 756.8377,-159"/>
<polygon fill="#000000" stroke="#000000" points="756.8378,-155.5001 746.8377,-159 756.8377,-162.5001 756.8378,-155.5001"/>
</g>
<!-- DashboardComponent -->
<g id="node5" class="node">
<title>DashboardComponent</title>
<polygon fill="#ffffb3" stroke="#000000" points="775.9734,-122 634.0266,-122 634.0266,-86 775.9734,-86 775.9734,-122"/>
<text text-anchor="middle" x="705" y="-99.8" font-family="Times,serif" font-size="14.00" fill="#000000">DashboardComponent</text>
</g>
<!-- DashboardComponent&#45;&gt;AppModule -->
<g id="edge5" class="edge">
<title>DashboardComponent&#45;&gt;AppModule</title>
<path fill="none" stroke="#000000" d="M705,-122.1061C705,-122.1061 705,-140.991 705,-140.991"/>
<polygon fill="#000000" stroke="#000000" points="701.5001,-140.9909 705,-150.991 708.5001,-140.991 701.5001,-140.9909"/>
</g>
<!-- CompleteRegisterComponent -->
<g id="node6" class="node">
<title>CompleteRegisterComponent</title>
<polygon fill="#ffffb3" stroke="#000000" points="616.4227,-122 433.5773,-122 433.5773,-86 616.4227,-86 616.4227,-122"/>
<text text-anchor="middle" x="525" y="-99.8" font-family="Times,serif" font-size="14.00" fill="#000000">CompleteRegisterComponent</text>
</g>
<!-- CompleteRegisterComponent&#45;&gt;AppModule -->
<g id="edge6" class="edge">
<title>CompleteRegisterComponent&#45;&gt;AppModule</title>
<path fill="none" stroke="#000000" d="M525,-122.0091C525,-138.0494 525,-159 525,-159 525,-159 653.252,-159 653.252,-159"/>
<polygon fill="#000000" stroke="#000000" points="653.252,-162.5001 663.252,-159 653.2519,-155.5001 653.252,-162.5001"/>
</g>
<!-- FilterPipe -->
<g id="node7" class="node">
<title>FilterPipe</title>
<polygon fill="#ffffb3" stroke="#000000" points="415.7177,-122 344.2823,-122 344.2823,-86 415.7177,-86 415.7177,-122"/>
<text text-anchor="middle" x="380" y="-99.8" font-family="Times,serif" font-size="14.00" fill="#000000">FilterPipe</text>
</g>
<!-- FilterPipe&#45;&gt;AppModule -->
<g id="edge7" class="edge">
<title>FilterPipe&#45;&gt;AppModule</title>
<path fill="none" stroke="#000000" d="M380,-122.2667C380,-140.5552 380,-166 380,-166 380,-166 653.1773,-166 653.1773,-166"/>
<polygon fill="#000000" stroke="#000000" points="653.1773,-169.5001 663.1773,-166 653.1772,-162.5001 653.1773,-169.5001"/>
</g>
<!-- AppComponent  -->
<g id="node10" class="node">
<title>AppComponent </title>
<polygon fill="#80b1d3" stroke="#000000" points="759.439,-252 650.561,-252 650.561,-216 759.439,-216 759.439,-252"/>
<text text-anchor="middle" x="705" y="-229.8" font-family="Times,serif" font-size="14.00" fill="#000000">AppComponent </text>
</g>
<!-- AppModule&#45;&gt;AppComponent  -->
<g id="edge9" class="edge">
<title>AppModule&#45;&gt;AppComponent </title>
<path fill="none" stroke="#000000" stroke-dasharray="1,5" d="M705,-187.1061C705,-187.1061 705,-205.991 705,-205.991"/>
<polygon fill="#000000" stroke="#000000" points="701.5001,-205.9909 705,-215.991 708.5001,-205.991 701.5001,-205.9909"/>
</g>
<!-- AppRoutingModule -->
<g id="node9" class="node">
<title>AppRoutingModule</title>
<polygon fill="#8dd3c7" stroke="#000000" points="320.2744,-122 317.2744,-126 296.2744,-126 293.2744,-122 191.7256,-122 191.7256,-86 320.2744,-86 320.2744,-122"/>
<text text-anchor="middle" x="256" y="-99.8" font-family="Times,serif" font-size="14.00" fill="#000000">AppRoutingModule</text>
</g>
<!-- AppRoutingModule&#45;&gt;AppModule -->
<g id="edge8" class="edge">
<title>AppRoutingModule&#45;&gt;AppModule</title>
<path fill="none" stroke="#000000" d="M256,-122.1289C256,-142.5724 256,-173 256,-173 256,-173 653.1624,-173 653.1624,-173"/>
<polygon fill="#000000" stroke="#000000" points="653.1624,-176.5001 663.1624,-173 653.1623,-169.5001 653.1624,-176.5001"/>
</g>
<!-- RegisterService -->
<g id="node11" class="node">
<title>RegisterService</title>
<ellipse fill="#fdb462" stroke="#000000" cx="96" cy="-104" rx="72.3439" ry="18"/>
<text text-anchor="middle" x="96" y="-99.8" font-family="Times,serif" font-size="14.00" fill="#000000">RegisterService</text>
</g>
<!-- RegisterService&#45;&gt;AppModule -->
<g id="edge10" class="edge">
<title>RegisterService&#45;&gt;AppModule</title>
<path fill="none" stroke="#000000" d="M96,-122.0109C96,-144.4852 96,-180 96,-180 96,-180 653.141,-180 653.141,-180"/>
<polygon fill="#000000" stroke="#000000" points="653.141,-183.5001 663.141,-180 653.1409,-176.5001 653.141,-183.5001"/>
</g>
</g>
</svg>
